HIERARCHY
ROOT hip
{
	OFFSET 0.000000 0.000000 0.000000 
	CHANNELS 6 Xposition Yposition Zposition Xrotation Zrotation Yrotation
	JOINT abdomen
	{
		OFFSET 0.000000 3.402643 0.000000 
		CHANNELS 3 Xrotation Zrotation Yrotation
		JOINT chest
		{
			OFFSET 0.000000 8.438565 -0.680529 
			CHANNELS 3 Xrotation Zrotation Yrotation
			JOINT neck
			{
				OFFSET 0.000000 10.207942 -0.272212 
				CHANNELS 3 Xrotation Zrotation Yrotation
				JOINT head
				{
					OFFSET 0.000000 3.130431 0.000000 
					CHANNELS 3 Xrotation Zrotation Yrotation
					End Site
					{
						OFFSET 0.000000 3.130435 0.000000 
					}
				}
			}
			JOINT lCollar
			{
				OFFSET 3.470700 6.669187 -0.816635 
				CHANNELS 3 Yrotation Zrotation Xrotation
				JOINT lShldr
				{
					OFFSET 3.198488 0.000000 0.000000 
					CHANNELS 3 Zrotation Yrotation Xrotation
					JOINT lForeArm
					{
						OFFSET 10.139888 0.000000 0.000000 
						CHANNELS 3 Yrotation Zrotation Xrotation
						JOINT lHand
						{
							OFFSET 8.370511 0.000000 0.000000 
							CHANNELS 3 Zrotation Yrotation Xrotation
							End Site
							{
								OFFSET 4.083176 0.000000 0.000000 
							}
						}
					}
				}
			}
			JOINT rCollar
			{
				OFFSET -3.470700 6.669187 -0.816635 
				CHANNELS 3 Yrotation Zrotation Xrotation
				JOINT rShldr
				{
					OFFSET -3.198488 0.000000 0.000000 
					CHANNELS 3 Zrotation Yrotation Xrotation
					JOINT rForeArm
					{
						OFFSET -10.139888 0.000000 0.000000 
						CHANNELS 3 Yrotation Zrotation Xrotation
						JOINT rHand
						{
							OFFSET -8.370511 0.000000 0.000000 
							CHANNELS 3 Zrotation Yrotation Xrotation
							End Site
							{
								OFFSET -4.083176 0.000000 0.000000 
							}
						}
					}
				}
			}
		}
	}
	JOINT lThigh
	{
		OFFSET 5.308129 -1.633274 1.361059 
		CHANNELS 3 Xrotation Zrotation Yrotation
		JOINT lShin
		{
			OFFSET -2.041588 -20.007561 0.000000 
			CHANNELS 3 Xrotation Zrotation Yrotation
			JOINT lFoot
			{
				OFFSET 0.000000 -19.190928 -1.224953 
				CHANNELS 3 Xrotation Yrotation Zrotation
				End Site
				{
					OFFSET 0.000000 -2.449906 4.627600 
				}
			}
		}
	}
	JOINT rThigh
	{
		OFFSET -5.308129 -1.633274 1.361059 
		CHANNELS 3 Xrotation Zrotation Yrotation
		JOINT rShin
		{
			OFFSET 2.041588 -20.007561 0.000000 
			CHANNELS 3 Xrotation Zrotation Yrotation
			JOINT rFoot
			{
				OFFSET 0.000000 -19.190928 -1.224953 
				CHANNELS 3 Xrotation Yrotation Zrotation
				End Site
				{
					OFFSET 0.000000 -2.449906 4.627600 
				}
			}
		}
	}
}
MOTION
Frames: 11
Frame Time: 0.031000
11.365398 24.566494 -15.427021 4.271905 20.757664 -45.493301 51.751743 8.617167 -2.378644 -20.839844 0.000000 0.000000 16.514765 14.939761 -0.654243 8.586096 -4.084739 0.307924 -4.754608 -0.109225 -0.002657 -71.384811 -23.172615 27.349134 -103.625740 -46.637108 -18.983273 -5.879707 3.941453 -14.914816 4.754608 0.109225 -0.002676 59.133755 -4.118911 -12.311067 2.658273 0.181401 15.403077 10.400859 24.313036 16.460196 -104.566750 -3.574751 6.765802 77.733383 -6.228549 -9.312482 8.514795 -8.840095 11.232525 -18.817411 -30.212549 -9.777428 99.907776 -2.967372 16.146599 -11.908711 15.921630 22.496557 
11.503170 24.524796 -15.821293 4.520413 20.683132 -44.952843 51.641632 8.690331 -2.380448 -20.839844 0.000000 0.000000 16.448935 15.497201 -0.979471 8.586096 -4.084739 0.307924 -4.754608 -0.109225 -0.002657 -69.831680 -21.593067 26.066143 -106.088913 -46.281158 -20.727205 -6.162440 4.055886 -14.902989 4.754608 0.109225 -0.002676 56.529854 -5.117897 -13.404071 2.663698 0.159967 14.377234 10.689039 23.109570 15.512100 -104.626900 -3.720733 6.681205 76.752274 -6.052457 -9.420366 9.399187 -9.037948 10.956909 -19.501572 -29.852097 -9.683601 100.698402 -2.615827 16.265999 -12.291878 15.875096 22.781607 
11.654140 24.456179 -16.196552 4.729093 20.677555 -44.330097 51.582268 8.632463 -2.599291 -20.839844 0.000000 0.000000 16.779644 16.015247 -1.370309 8.586096 -4.084739 0.307924 -4.754608 -0.109225 -0.002657 -68.585213 -19.899948 25.034536 -108.337219 -46.080063 -22.635260 -6.501957 4.017904 -15.321814 4.754608 0.109225 -0.002676 53.255360 -6.272002 -14.657858 2.668877 0.131066 13.175461 10.938848 21.764679 14.409247 -104.725418 -3.897120 6.658874 75.751938 -6.003720 -9.539352 10.369662 -9.234544 10.597553 -20.272604 -29.675430 -9.711359 101.688881 -2.265568 16.253246 -12.358654 15.792118 22.307020 
11.810894 24.377531 -16.547047 4.876413 20.712425 -43.874870 51.737110 8.425653 -3.237206 -20.839844 0.000000 0.000000 17.436859 16.495918 -1.362094 8.586096 -4.084739 0.307924 -4.754608 -0.109225 -0.002657 -67.552162 -17.918249 23.974146 -110.410927 -45.762924 -24.439512 -6.849424 4.021971 -15.813025 4.754608 0.109225 -0.002676 49.339241 -7.149223 -15.884253 2.673278 0.098042 11.563460 10.636909 20.578867 12.501338 -104.784462 -3.896790 6.664217 74.792244 -6.032632 -9.629060 11.265758 -9.478577 10.167554 -21.013401 -29.585346 -9.755709 102.682915 -1.942709 16.117363 -12.406866 15.578396 21.623230 
11.976635 24.292551 -16.883793 4.999710 20.650473 -43.769852 52.177807 8.063246 -4.082624 -20.839844 0.000000 0.000000 18.290915 16.947626 -0.958871 8.586096 -4.084739 0.307924 -4.754608 -0.109225 -0.002657 -66.868263 -15.610326 22.812170 -112.389206 -45.166931 -26.112169 -7.201773 4.098404 -16.338457 4.754608 0.109225 -0.002676 44.836384 -7.608649 -17.063107 2.676301 0.038402 9.062310 9.398653 19.490067 9.049700 -104.794571 -3.603624 6.528483 73.920097 -6.061481 -9.750682 12.111750 -9.768565 9.709021 -21.746630 -29.342875 -9.657179 103.586113 -1.755887 15.920238 -12.615594 15.229737 21.170345 
12.157665 24.202291 -17.211033 5.150252 20.470816 -43.944386 52.812984 7.595706 -4.831805 -20.839844 0.000000 0.000000 19.103500 17.454819 -0.565779 8.586096 -4.084739 0.307924 -4.754608 -0.109225 -0.002657 -66.570374 -13.065057 21.538195 -114.497749 -44.196346 -27.724916 -7.601951 4.215443 -16.808161 4.754608 0.109225 -0.002676 39.697636 -7.799459 -18.302383 2.650119 -0.037133 5.398748 7.460871 18.224140 3.804388 -104.817207 -3.067000 6.300299 73.184929 -6.023174 -9.911261 12.912302 -10.067488 9.302108 -22.525354 -28.918673 -9.370001 104.386909 -1.677788 15.735559 -12.862133 14.893880 21.021317 
12.353498 24.111509 -17.524052 5.342118 20.289841 -44.145363 53.521030 7.152850 -5.443604 -20.839844 0.000000 0.000000 19.756685 17.984894 -0.432998 8.586096 -4.084739 0.307924 -4.754608 -0.109225 -0.002657 -66.599030 -10.566852 20.277338 -116.594635 -42.971504 -29.020763 -7.990392 4.354225 -16.965652 4.754608 0.109225 -0.002676 33.981647 -8.122879 -19.626408 2.597620 -0.127345 0.933903 5.447407 16.848440 -2.632086 -104.865303 -2.569058 6.057193 72.442284 -5.954878 -10.013039 13.720702 -10.236560 8.983002 -23.416843 -28.572098 -9.058773 105.142654 -1.659265 15.658417 -12.982436 14.763638 20.947435 
12.555113 24.022306 -17.823324 5.577251 20.165766 -44.191998 54.242512 6.815329 -6.007800 -20.839844 0.000000 0.000000 20.346252 18.484398 -0.389953 8.586096 -4.084739 0.307924 -4.754608 -0.109225 -0.002657 -66.863609 -8.628275 19.222502 -118.086159 -41.808193 -29.574575 -8.100630 4.540059 -16.733511 4.754608 0.109225 -0.002676 27.957319 -8.803242 -20.903519 2.511794 -0.203054 -3.785057 3.830291 15.558209 -9.448817 -104.979607 -2.266144 5.847068 71.633095 -5.895568 -10.047264 14.550698 -10.358586 8.711542 -24.382240 -28.296762 -8.803606 105.936752 -1.601397 15.653310 -13.037133 14.759252 20.818203 
12.756746 23.929304 -18.109411 5.836081 20.128218 -44.136581 54.959263 6.553316 -6.590075 -20.839844 0.000000 0.000000 21.059029 18.861879 -0.194031 8.586096 -4.084739 0.307924 -4.754608 -0.109225 -0.002657 -66.890045 -7.114387 18.288006 -119.592705 -40.709644 -30.087112 -8.055420 4.955800 -16.449657 4.754608 0.109225 -0.002676 21.817768 -9.770326 -22.045521 2.394711 -0.251322 -8.396797 2.853310 14.339593 -16.138962 -105.115601 -1.963435 5.750494 70.793289 -5.954005 -10.082963 15.437419 -10.506407 8.561193 -25.395405 -28.029953 -8.542080 106.770164 -1.541263 15.653288 -13.246303 14.739439 20.689291 
12.962099 23.827646 -18.384954 6.067399 20.188494 -44.088211 55.609032 6.385331 -7.235452 -20.839844 0.000000 0.000000 22.100349 18.992411 0.269471 8.586096 -4.084739 0.307924 -4.754608 -0.109225 -0.002657 -66.597565 -5.638968 17.319864 -121.369797 -39.617912 -31.232458 -8.257536 5.291333 -16.859045 4.754608 0.109225 -0.002676 15.613834 -10.794429 -22.965492 2.257696 -0.261137 -12.695954 2.425480 13.309258 -22.530069 -105.249550 -1.504022 5.754309 69.900200 -6.227563 -10.139079 16.407866 -10.737530 8.580718 -26.493597 -27.743242 -8.208270 107.640182 -1.541445 15.648631 -13.605799 14.637879 20.700592 
13.171633 23.721128 -18.651999 6.323282 20.335026 -44.043041 56.106121 6.414245 -7.966650 -20.839844 0.000000 0.000000 23.615400 18.712423 0.911225 8.586096 -4.084739 0.307924 -4.754608 -0.109225 -0.002657 -66.255577 -4.210281 16.403921 -122.848427 -38.695240 -32.687969 -8.784407 5.239155 -18.005928 4.754608 0.109225 -0.002676 9.384521 -11.610997 -23.663502 2.119397 -0.250748 -16.428677 2.200867 12.856297 -28.369162 -105.423126 -0.977382 5.812326 68.964294 -6.608780 -10.178760 17.444895 -11.042810 8.670647 -27.694132 -27.527815 -7.893444 108.526505 -1.589298 15.685311 -13.968042 14.689424 20.780970 
